<svg width="800" height="600" xmlns="http://www.w3.org/2000/svg">
 <g>
  <title>Layer 1</title>
  <path fill="#C48157" stroke="#000" stroke-width="10" opacity="undefined" d="m396.5733,595.20428c-165.74586,0 -300,-138.3637 -300,-304.10956c0,-165.74586 142.47325,-283.56178 308.21911,-283.56178c165.74586,0 291.78089,117.81592 291.78089,283.56178c0,165.74586 -134.25414,304.10956 -300,304.10956z" id="svg_4"/>
  <path fill="none" stroke="#000" stroke-width="10" id="svg_14" d="m193.82014,181.81978c0.9091,0.90909 1.81819,1.81819 1.81819,1.81819c3.63637,1.81819 12.53142,3.49547 21.81825,5.45456c7.17151,1.51286 12.79861,2.53624 15.45459,3.63638c1.87805,0.77792 3.84489,0.30179 7.27277,1.81818c2.99759,1.32603 6.36365,1.81819 8.18184,1.81819c1.81819,0 3.63637,0 6.36366,-1.81819c2.72728,-1.81818 5.28426,-4.73347 7.27275,-6.36365c2.53485,-2.07806 2.85846,-3.57651 3.63638,-5.45457c1.10016,-2.65596 2.72726,-5.45456 2.72726,-8.18184c0,-0.90909 0,-2.72728 0,-4.54547c0,-1.81819 0,-3.63637 0,-6.36366c0,-2.72728 0.41772,-5.5032 0,-7.27275c-0.93408,-3.95682 -1.81818,-4.54547 -2.72726,-5.45456c-1.81821,-1.81819 -2.72729,-2.72728 -3.63638,-3.63637c-0.90909,-0.9091 -2.79651,-1.47029 -3.63638,-1.81819c-2.37556,-0.98399 -2.72728,-1.81819 -3.63637,-1.81819c-0.9091,0 -1.88739,-0.3479 -2.72729,0c-1.18777,0.49199 -2.86305,1.34026 -3.63637,1.81819c-1.7292,1.06871 -0.90909,3.63637 -0.90909,3.63637c-0.9091,1.81819 -1.35115,3.47615 -1.81819,5.45457c-0.41772,1.76955 -0.9091,6.36365 -0.9091,9.09093c0,3.63638 0.45113,5.37074 0.9091,9.09094c0.22215,1.80457 0,1.81819 0.90909,3.63638l0,0l-0.90909,0"/>
  <path fill="none" stroke="#000" stroke-width="10" id="svg_15" d="m252.00215,215.45625c0.9091,-0.90909 0.9091,-0.90909 0.9091,0c0,0.90909 1.36209,8.12544 1.81819,13.63641c0.44991,5.43597 0.44791,10.02216 0,14.5455c-0.45677,4.61293 -0.9091,7.27275 -0.9091,14.54549c0,5.45459 0,8.18185 0,10.00006c0,1.81818 -0.44205,7.11252 -0.90909,9.09091c-0.41774,1.76956 -1.2159,5.73642 -2.72728,8.18185c-0.67592,1.09363 -2.125,2.10004 -3.63638,4.54547c-1.35182,2.18729 -3.35768,4.05347 -4.54547,4.54547c-1.67978,0.69577 -2.54274,1.14227 -3.63637,1.81818c-2.44545,1.51138 -3.64966,1.54947 -6.36366,1.81821c-4.61293,0.45676 -7.27275,0.90909 -8.18184,0.90909c-2.72728,0 -3.95009,0.98297 -8.18185,-0.90909c-4.14958,-1.85532 -5.64699,-4.28558 -8.18184,-6.36368c-1.98849,-1.63019 -4.54547,-4.54544 -5.45456,-7.27274c-0.9091,-2.72729 -2.72729,-6.36365 -2.72729,-9.09094c0,-0.90909 -0.97447,-4.19189 0.9091,-6.36365c1.33189,-1.53568 3.35687,-2.89639 4.54547,-4.54547c1.50346,-2.08597 3.63637,-4.54547 5.45456,-6.36368c0,0 1.70779,-0.44861 4.54547,-0.90909c0.89735,-0.14563 4.54547,-0.90909 7.27275,-1.81818c2.72728,-0.9091 4.5591,-1.59604 6.36366,-1.81819c3.7202,-0.45798 7.11313,-0.08899 8.18184,-1.81819c0.47794,-0.77332 0.90909,-0.90909 2.72728,-4.54547l3.63638,-3.63637l1.81818,-0.9091l0.9091,-0.90909"/>
  <path fill="none" stroke="#000" stroke-width="10" id="svg_16" d="m272.00223,227.27448c0,0 3.7774,-1.42686 11.81821,-4.54547c8.34769,-3.23763 13.98254,-5.92929 16.36371,-8.18184c3.30206,-3.12372 4.54547,-5.45457 8.18182,-7.27275c3.63638,-1.81819 5.72458,-4.19443 8.18185,-6.36366c1.52396,-1.34532 3.80548,-4.26598 5.45456,-5.45456c2.08597,-1.50348 3.95108,-4.27771 5.45456,-6.36366c2.3772,-3.29817 2.72729,-3.63637 2.72729,-4.54547c0,-1.81819 0.90909,-3.63637 0.90909,-5.45456c0,-1.81819 -0.41708,-2.44859 -0.90909,-3.63638c-0.3479,-0.83989 0,-1.81818 0,-3.63637c0,-0.9091 0,-2.72728 0,-3.63638c0,-0.90909 -0.86835,-1.40833 -1.81818,-4.54547c-0.52689,-1.74016 -3.46729,-5.17505 -1.81821,-6.36365c1.04297,-0.75172 0.31381,1.97908 1.81821,6.36365c1.31943,3.84554 3.63635,10.00005 5.45456,15.45461c2.72729,8.18184 2.74777,17.32727 3.63638,24.54553c0.45798,3.72021 1.01443,6.33078 1.81818,9.09094c1.04797,3.5988 1.53949,4.96257 2.72726,5.45456c0.8399,0.3479 2.72729,0 5.45459,0c3.63635,0 7.91406,-1.2238 10.00003,-2.72728c1.64908,-1.18858 4.5047,-5.04469 5.45456,-8.18184c1.05377,-3.48035 1.3602,-7.18892 1.81818,-10.90913c0.44431,-3.60912 0.35831,-7.29045 0,-10.90912c-0.45676,-4.61293 -2.08054,-8.97119 -3.63638,-12.72733c-1.10013,-2.65598 -0.90909,-5.45456 -0.90909,-5.45456c0,-0.90909 0.90909,-2.72728 0,-3.63638c0,0 0,-2.72728 0,-1.81818c0,0 0.75912,1.82437 0.90909,3.63637c0.45612,5.51096 0.90912,9.09094 0.90912,13.63641c0,4.54547 -0.55539,9.125 0,13.63641c0.45798,3.7202 1.57404,10.06993 2.72726,13.6364c1.50623,4.65816 4.01447,6.14647 5.45456,9.09094c1.26306,2.58249 2.29108,3.02153 3.63638,4.54547c2.16925,2.45729 5.45456,2.72728 7.27277,4.54547c0.90909,0.90909 2.72726,0.90909 4.54547,0.90909c2.72726,0 6.73825,0.9377 10.00003,-0.90909c3.35632,-1.90031 4.33591,-3.08273 6.36365,-6.36366c1.51138,-2.44545 -0.14468,-3.7924 0.90909,-7.27275c0.94986,-3.13715 3.16934,-7.11252 3.63638,-9.09094c0.83545,-3.53909 1.62714,-5.52586 2.72729,-8.18184c0.77792,-1.87805 1.08206,-4.43776 2.72726,-7.27275c1.02032,-1.75819 1.0144,-4.51259 1.81818,-7.27275c1.04797,-3.59882 1.81821,-6.36366 1.81821,-8.18185c0,-1.81818 0,-3.63637 0,-6.36365c0,-0.9091 -0.44205,-3.47615 -0.90909,-5.45456c-0.62662,-2.65434 -0.70026,-3.66071 -0.90912,-4.54547c-0.46704,-1.97842 -0.74643,-3.90793 -3.63635,-5.45457c-0.80151,-0.42896 -3.28848,-0.97829 -3.63638,-1.81818c-0.98398,-2.37558 -3.63638,-1.81819 -4.54547,-1.81819c-1.81818,0 -3.63638,0 -5.45456,0c-0.90909,0 -1.07819,-0.27951 -2.72729,0.90909c-2.08594,1.50346 -1.55826,2.91972 -3.63635,5.45456c-0.81509,0.99426 -1.81821,2.72729 -1.81821,3.63638c0,0.90909 0,2.72728 0,4.54547c0,1.81819 -0.29123,3.65985 0,5.45456c0.46048,2.83768 1.55832,5.647 3.63638,8.18185c0.81509,0.99425 2.72726,2.72728 4.54547,4.54547l2.72726,0.90909l0.90912,1.81819"/>
  <path fill="none" stroke="#000" stroke-width="10" id="svg_19" d="m424.73001,192.72891c0.90909,0 1.61478,0.26994 6.36365,3.63637c6.9967,4.9599 13.11218,9.48024 18.18188,13.63641c2.98273,2.44527 4.54547,5.45456 8.18185,9.09094c2.72726,2.72728 4.10843,5.96199 6.36365,9.09093c2.3772,3.29819 1.81818,4.54547 1.81818,6.36366c0,1.81819 0.43622,3.93062 -0.90909,5.45456c-2.16922,2.45728 -5.46817,3.41423 -7.27274,3.63638c-3.72021,0.45798 -6.36368,0.90909 -10.90915,0.90909c-2.72726,0 -8.18182,-0.90909 -9.09094,-0.90909c-1.81818,0 -2.79858,0.19104 -5.45456,-0.9091c-1.87805,-0.77791 -3.63635,-2.72728 -5.45456,-6.36365c0,0 0,-0.9091 0,-1.81819c0,-0.90909 -1.04367,-2.02579 0,-4.54547c0.492,-1.18777 1.17538,-3.90263 1.81821,-4.54547c0.64282,-0.64282 0.53253,-1.44162 1.81818,-2.72728c1.28564,-1.28564 2.72726,-0.90909 3.63638,-1.81819l0.90909,-0.90909l0,-0.90909"/>
  <path fill="#C48157" stroke="#000" stroke-width="10" opacity="NaN" d="m552.00315,130.00143" id="svg_20"/>
  <path fill="none" stroke="#000" stroke-width="10" id="svg_21" d="m464.73013,204.54713c0,0 0.3746,0.93768 3.63638,-0.9091c4.4751,-2.53375 7.46518,-5.19466 10.00003,-7.27275c1.98849,-1.63017 3.79727,-3.04108 8.18185,-4.54547c3.84552,-1.31944 7.27274,-2.72728 8.18182,-3.63637c2.72729,-2.72728 4.95502,-4.04591 7.27277,-6.36366c2.31775,-2.31773 6.36365,-4.54547 7.27274,-7.27275c0.90912,-2.72728 3.55423,-4.82552 5.45456,-8.18184c1.8468,-3.26176 2.90027,-7.16505 4.54547,-10.00005c2.04059,-3.51637 2.14478,-7.3197 2.72729,-10.90912c0.46051,-2.83769 1.36023,-7.18893 1.81818,-10.90913c0.33319,-2.70685 0,-5.45456 -0.90906,-7.27274c0,0 0.90906,-3.63638 -0.90912,-3.63638c-0.90912,0 0.90912,3.63638 0.90912,4.54548c0,3.63637 2.40057,10.9644 3.63635,17.27278c0.72058,3.67838 2.26929,7.18892 2.72729,10.90912c0.22217,1.80457 0,6.36366 0,9.09094c0,6.36366 0,10.90913 0,14.5455c0,6.36366 -0.11298,11.82173 0,13.63641c0.45538,7.31519 1.81818,10.00003 1.81818,10.90913c0,2.72728 0.45111,3.55254 0.90912,7.27275c0.33325,2.70685 1.36139,7.20529 1.81818,11.81821c0.26874,2.71402 1.28717,7.96463 2.72729,10.90913c1.26306,2.58247 1.3811,4.14383 3.63635,7.27275c1.1886,1.64909 2.13287,3.36862 3.63635,5.45456c1.1886,1.64909 2.35822,3.19365 4.54547,4.54547c2.4455,1.5114 4.4856,0.77792 6.36365,0c2.65601,-1.10014 5.37244,-3.00732 7.27277,-6.36365c1.8468,-3.26176 2.48315,-6.43356 3.63641,-10.00005c1.50623,-4.65813 3.61963,-8.8291 4.54547,-13.6364c1.37537,-7.14153 -0.41772,-11.86685 0,-13.63641c0.46704,-1.97841 1.81818,-2.72728 2.72723,-3.63637l0.90912,-0.9091l0,-0.90909"/>
  <path fill="none" stroke="#000" stroke-width="10" id="svg_26" d="m468.36652,141.81964c0.90909,0 1.82919,0.66418 4.54547,0.9091c10.12289,0.91278 39.091,2.72728 73.6366,-0.9091l36.36377,-5.45456"/>
  <path fill="none" stroke="#000" stroke-width="10" id="svg_36" d="m248.00215,343.82031c0,0.90912 0,0.90912 0,2.72729c0,3.63638 1.36295,8.1441 1.81819,16.36368c0.25137,4.53851 0.90909,9.09094 0.90909,14.5455c0,2.72729 0.45232,9.0235 0.90909,13.63641c0.44789,4.52335 -0.33324,8.2023 0,10.90915c0.45798,3.72018 -0.30573,4.80334 1.81819,11.81821c1.17815,3.89114 2.27159,8.13342 2.72728,14.5455c0.51556,7.25446 1.8063,12.5065 2.72729,18.18188c0.58249,3.58942 0.51773,7.39365 1.81818,10.90912c1.41055,3.81308 2.47638,7.47525 5.45456,10.90912c1.68475,1.94254 3.63638,2.72729 4.54547,2.72729c2.72729,0 4.88367,0.55902 8.18185,-1.81818c3.12894,-2.25522 4.83972,-4.10925 6.36365,-5.45456c2.45731,-2.16925 3.63638,-6.36368 5.45456,-10.00006l0.90912,-1.81818l0.90909,-1.81818l-0.90909,-1.81821"/>
  <path fill="none" stroke="#000" stroke-width="10" id="svg_37" d="m227.09299,384.72955c0,0 0.9091,0 2.72728,0c3.63638,0 8.18185,0 10.90913,0c3.63637,0 9.09094,0 11.81822,0c3.63637,0 7.27275,0 9.09093,0c1.81821,0 3.63638,0 4.54547,0l0.90909,0l1.81821,0l0.90909,0"/>
  <path fill="none" stroke="#000" stroke-width="10" id="svg_38" d="m315.27509,426.54788c0.90912,1.81818 1.81821,1.81818 2.72729,1.81818c1.81818,0 2.72729,0 5.45456,0c2.72729,0 5.45456,-0.90909 6.36368,-0.90909c0.90909,0 3.00909,-0.30679 5.45456,-1.81818c4.37454,-2.70361 6.48242,-6.48071 7.27274,-9.09094c0.94986,-3.13715 3.63638,-2.72729 3.63638,-4.54547c0,-1.81821 -0.62958,-3.80548 -1.81818,-5.45456c-1.50348,-2.08597 -1.86685,-2.30957 -3.63638,-2.72729c-1.97842,-0.46704 -3.63638,-0.90909 -4.54547,-0.90909c-0.90909,0 -2.89639,0.62958 -4.54547,1.81818c-2.08594,1.50348 -3.36862,3.95111 -5.45456,5.45456c-1.64911,1.1886 -4.54547,3.63638 -5.45456,3.63638c-0.90912,0 -1.12241,1.04749 -1.81821,2.72729c-0.492,1.18777 -2.68652,3.2265 -3.63638,6.36365c-0.79034,2.61026 -0.90909,8.18185 -0.90909,9.09094c0,3.63638 -0.58109,6.5592 1.81821,12.72733c0.73694,1.8945 2.13287,5.1868 3.63635,7.27274c1.1886,1.64908 -0.06537,3.28278 1.81821,5.45456c1.33188,1.53568 1.77139,2.08975 2.72726,3.63638c1.06873,1.72922 1.90717,2.56766 3.63638,3.63638c3.09329,1.91177 3.64813,0.76346 4.54547,0.90909c2.83771,0.46048 2.64346,2.26929 6.36365,2.72726c5.41373,0.66647 7.27277,0 8.18185,-0.90909c1.81821,-1.81818 2.51843,-2.75159 2.72729,-3.63635c0.46704,-1.97842 2.65237,-3.07901 3.63635,-5.45459c0.69577,-1.67978 0.44208,-2.56702 0.90912,-4.54547c0.20886,-0.88477 0,-1.81818 0,-1.81818l0,-0.90909l-0.90912,-0.90909l0,-0.90912"/>
  <path fill="none" stroke="#000" stroke-width="10" id="svg_39" d="m409.82086,402.00235c0,0 -1.81818,0 -1.81818,0c-3.63638,-1.81821 -3.91888,-5.52756 -4.54547,-8.18185c-0.46704,-1.97839 -1.81818,-1.81818 -1.81818,-1.81818c-0.90912,0 -1.72986,1.11292 -3.63638,1.81818c-3.51547,1.30045 -4.19757,2.79648 -4.54547,3.63638c-0.492,1.18777 -2.6524,1.2608 -3.63638,3.63635c-0.3479,0.8399 -1.47028,1.88742 -1.81818,2.72729c-0.98401,2.37558 -1.81821,3.63638 -1.81821,6.36365c0,1.81821 -1.05472,7.28452 -0.90909,8.18185c0.46048,2.83771 0.35172,5.37967 2.72729,6.36365c1.67978,0.69577 2.10001,0.30682 4.54547,1.81821c1.09363,0.6759 4.54547,1.81818 7.27274,1.81818c0.90909,0 3.63638,0 4.54547,0c0,0 0.90909,0 1.81818,0c0.90912,0 3.04199,1.55045 4.54547,3.63638c1.1886,1.64908 2.98962,3.51666 4.54547,7.27274c1.10016,2.65601 1.25702,3.7056 0.90912,4.54547c-0.492,1.18784 -1.81821,3.63638 -2.72729,4.54547c-1.81818,1.81821 -2.72729,1.81821 -5.45456,2.72729c0,0 -2.72729,0.90909 -3.63638,0.90909c-2.72726,0 -4.75305,1.04367 -7.27274,0c-1.18781,-0.492 -2.66742,-1.04025 -4.54547,-1.81818c-2.65601,-1.10016 -5.45459,-6.36368 -8.18185,-10.00003l-1.81818,-4.54547"/>
  <path fill="none" stroke="#000" stroke-width="10" id="svg_40" d="m434.36639,354.72946c0,0.90909 -0.38669,0.92282 0,6.36365c0.45572,6.41208 0.90912,11.81824 1.81821,17.2728c0.90909,5.45456 0.90909,11.81821 0.90909,17.27277c0,7.27277 -0.25778,15.46375 0,19.09097c0.45569,6.41211 2.26929,9.9162 2.72726,13.63641c0.44431,3.60913 0.90912,7.27277 0.90912,10.00003c0,3.63638 -0.52722,5.25803 1.81818,8.18185c1.27197,1.58566 2.44858,3.14438 3.63638,3.63638c1.67978,0.6958 3.52597,-0.44861 6.36365,-0.90912c1.79474,-0.29126 6.55609,-1.55829 9.09094,-3.63635c2.98276,-2.44528 4.54547,-4.54547 4.54547,-7.27277c0,-2.72726 0,-6.36365 0,-10.00003l0,-2.72726l0,-0.90912"/>
  <path fill="none" stroke="#000" stroke-width="10" id="svg_41" d="m413.45724,382.91138c1.81818,0 5.5032,0.49136 7.27274,0.90909c1.97842,0.46704 6.36368,0.90909 8.18185,0.90909c2.72729,0 7.31339,0.69214 12.72733,1.81818c3.66977,0.76328 6.36365,1.81821 6.36365,1.81821l0.90909,0"/>
  <path fill="none" stroke="#000" stroke-width="10" id="svg_43" d="m498.91208,409.27509c0,0 1.46301,-0.18408 2.72726,4.54547c1.66006,6.21021 1.26282,10.94318 1.81821,15.45459c0.45798,3.72021 0.90909,6.36368 0.90909,8.18185l0,1.81818l0,0l0,1.81821"/>
  <path fill="none" stroke="#000" stroke-width="10" id="svg_44" d="m498.91208,388.36594c0,0 -0.9783,0.3479 -1.81821,0c-1.18777,-0.492 -0.90909,0 -0.90909,3.63638l0,1.81818l0,0.90909"/>
  <path fill="none" stroke="#000" stroke-width="10" id="svg_45" d="m536.18494,373.82043c-0.90912,0 -0.90912,1.81818 -0.90912,3.63635c0,3.63638 0,8.18185 0,14.54553c0,7.27274 0.45367,11.77576 0.90912,19.09094c0.33893,5.44406 0.90906,10.00006 0.90906,12.72733c0,0.90909 0.90912,3.63638 0.90912,4.54547c0,3.63638 -0.90912,6.36365 -0.90912,7.27277c0,0 0,0.90909 -1.81818,0.90909l0,-1.81821"/>
  <path fill="none" stroke="#000" stroke-width="10" id="svg_46" d="m564.36682,436.54791c0,-0.90909 0,-0.90909 0,-1.81821c0,-2.72726 0,-3.63635 0,-7.27274c0,-4.54547 0,-8.18185 0,-13.63641c0,-5.45456 0,-7.27274 0,-9.09094c0,-1.81818 0.20886,-1.8425 0,-2.72726c-0.93408,-3.95685 -3.04205,-6.09592 -4.54547,-8.18185c-1.1886,-1.64908 -0.62952,-1.98727 -1.81818,-3.63638c-0.75177,-1.04297 -0.90912,-1.81818 -2.72729,-1.81818c-0.90906,0 -1.81818,0 -5.45453,0c-0.90912,0 -1.9873,-0.27954 -3.63641,0.90909c-1.04297,0.75171 -0.90906,1.81821 -2.72723,3.63638c-0.90912,0.90909 -2.72729,2.72726 -3.63641,3.63635l-0.90906,1.81821l-0.90912,0.90909l0,0"/>
  <path fill="none" stroke="#000" stroke-width="10" id="svg_48" d="m603.45789,394.72958c-0.90912,0 -1.87817,-0.11124 -3.63641,0.90909c-2.83496,1.6452 -4.68268,2.21329 -6.36365,4.54547c-1.59467,2.21249 -0.43689,3.6716 0,6.36368c1.38147,8.51303 1.99872,11.79529 4.54547,14.5455c1.95331,2.10931 3.91821,2.42041 6.36365,0.90909c1.09363,-0.6759 1.97559,-0.77524 2.72729,-1.81821c1.1886,-1.64911 0.61786,-2.75073 0.90912,-4.54547c0.46045,-2.83765 0.90906,-5.45456 0.90906,-9.09091c0,-1.81821 2.81116,-7.73071 -0.90906,-7.27277c-0.90228,0.11108 0,1.81818 1.81818,4.54547c1.81818,2.72729 2.05273,7.18579 3.63635,11.81821c2.14093,6.26251 4.53662,13.44574 5.45459,20.00009c0.63043,4.50153 -0.44861,8.07141 -0.90912,10.90912c-0.43689,2.69205 -1.94934,9.0311 -2.72723,10.90912c-1.10016,2.65601 -3.84442,4.29968 -8.18188,8.18185c-2.87396,2.57227 -5.6615,2.35822 -10,7.27274c-1.34534,1.52396 -3.35596,3.50787 -10.00006,5.45459c-5.3067,1.55484 -8.18182,1.81818 -10,1.81818c-1.81824,0 -2.37372,0.97446 -4.54547,-0.90909c-1.53571,-1.33191 -0.90912,-4.54547 -0.90912,-6.36368c0,-2.72726 0.31384,-6.52454 1.81818,-10.90912c1.3194,-3.84555 2.15576,-7.04251 4.54547,-10.90912c2.13739,-3.4584 4.54547,-8.18185 8.18188,-11.81824l8.18182,-3.63635"/>
 </g>

</svg>